<?xml version="1.0" encoding="utf-8"?>
<!-- Generator: Adobe Illustrator 19.1.0, SVG Export Plug-In . SVG Version: 6.00 Build 0)  -->
<svg version="1.1" id="Capa_1" xmlns="http://www.w3.org/2000/svg" xmlns:xlink="http://www.w3.org/1999/xlink" x="0px" y="0px"
	 viewBox="0 0 45 45" style="enable-background:new 0 0 45 45;" xml:space="preserve">
<style type="text/css">
	.st0{fill:#CE3636;}
</style>
<g>
	<g>
		<path class="st0" d="M18.7,3.8l0.4-0.4c0.4-0.4,0.9-0.7,1.4-1c-2-1.5-4.5-1.5-4.5-1.5s0.5,0.9,0.8,2.2C17.5,3.3,18.1,3.5,18.7,3.8
			z"/>
		<path class="st0" d="M21,4.6l0.8,0.4c1.6-1,3.3-1.7,4.8-2.2c0.1-0.7,0.3-1.4,0.8-2.1c-1.8,0-5.3,1-7.9,3.1C20,4.1,20.5,4.4,21,4.6
			z"/>
		<path class="st0" d="M25.6,33c-0.5,0.2-1.1,0.5-1.5,0.9c-0.6,0.5-1.1,1.1-1.5,1.7V23.1c1.7,1.4,6.4,1,6.4,1
			c-0.8-0.8-1.6-1.4-2.4-1.8c2.6-1.3,4.4-4.1,4.4-7.4c0-4.5-3.1-7.7-0.4-12c-4.1,0-14.6,3.9-14.6,12c0,2.7,1.2,5,3,6.5
			c-0.3,0.1-0.8,0.2-1.3,0.4c-1.8-1.7-3-4.1-3-6.9c0-4.7,3.1-7.7,5.8-9.6c-2.9-1.6-6.1-2.4-8-2.4c2.7,4.3-0.4,7.5-0.4,12
			c0,3.3,1.8,6.2,4.5,7.4c-0.8,0.4-1.6,1-2.4,1.8c0,0,4.6,0.4,6.4-1V37c-0.4-0.7-0.9-1.3-1.5-1.8c-0.5-0.4-1-0.7-1.5-0.9
			c-0.5-0.2-0.9-0.2-1.4-0.2c-1.1,0-2.2,0.4-3.3,0.9c0.5,0.6,0.9,1.1,1.4,1.7c0.8,0.9,1.8,1.6,3,2c1.1,0.3,2.2,0.4,3.3,0.1v5.5h1.9
			v-6.8c1.1,0.2,2.2,0.2,3.3-0.1c1.2-0.4,2.2-1.1,3-2c0.5-0.5,1-1.1,1.4-1.7c-1-0.4-2.2-0.9-3.3-0.9C26.5,32.7,26.1,32.8,25.6,33z
			 M19.9,37.9c-0.3-0.2-0.6-0.4-0.9-0.6c-0.3-0.2-0.6-0.3-0.9-0.5c-0.5-0.3-1.1-0.5-1.7-0.7c0.2,0,0.5,0.1,0.7,0.1
			c1,0.2,2.8,0.9,3.5,1.2v1C20.4,38.3,20.2,38.1,19.9,37.9z M25.2,35.5c-0.3,0.2-0.6,0.3-1,0.5c-0.3,0.2-0.6,0.4-0.9,0.6
			c-0.3,0.2-0.5,0.4-0.7,0.6v-0.9c0.8-0.3,2.5-1,3.5-1.2c0.2,0,0.5-0.1,0.8-0.1C26.3,35,25.7,35.3,25.2,35.5z"/>
	</g>
</g>
</svg>
