<?xml version="1.0" encoding="utf-8"?>
<!-- Generator: Adobe Illustrator 19.1.0, SVG Export Plug-In . SVG Version: 6.00 Build 0)  -->
<svg version="1.1" id="Capa_1" xmlns="http://www.w3.org/2000/svg" xmlns:xlink="http://www.w3.org/1999/xlink" x="0px" y="0px"
	 viewBox="-216 18.8 525.2 525.2" style="enable-background:new -216 18.8 525.2 525.2;" xml:space="preserve">
<style type="text/css">
	.st0{fill:#CE3636;}
	.st1{fill:#9A1D78;}
	.st2{fill:none;stroke:#CE3636;stroke-miterlimit:10;}
	.st3{fill:none;stroke:#9A1D78;stroke-width:3;stroke-miterlimit:10;}
	.st4{font-family:'Roboto-Regular';}
	.st5{font-size:43.8363px;}
	.st6{font-size:26.0921px;}
	.st7{font-size:43.4638px;}
	.st8{fill:none;stroke:#9A1D78;stroke-miterlimit:10;}
</style>
<g>
	<g>
		<path class="st0" d="M-367.5,295.4l0.6-0.5c0.6-0.5,1.2-0.9,1.8-1.3c-2.6-2-5.9-2-5.9-2s0.7,1.2,1.1,2.9
			C-369.1,294.7-368.3,295-367.5,295.4z"/>
		<path class="st0" d="M-364.4,296.5l1,0.6c2.1-1.3,4.3-2.3,6.4-2.9c0.1-0.9,0.4-1.8,1.1-2.8c-2.4,0-7.1,1.4-10.5,4.1
			C-365.7,295.8-365.1,296.1-364.4,296.5z"/>
		<path class="st0" d="M-358.4,334.1c-0.7,0.3-1.4,0.7-2,1.2c-0.8,0.6-1.5,1.4-2,2.3V321c2.3,1.9,8.5,1.3,8.5,1.3
			c-1-1-2.1-1.8-3.2-2.3c3.5-1.7,5.9-5.4,5.9-9.8c0-5.9-4.1-10.2-0.5-15.9c-5.5,0-19.3,5.1-19.3,15.9c0,3.5,1.6,6.7,4,8.6
			c-0.4,0.1-1,0.3-1.7,0.5c-2.4-2.2-4-5.5-4-9.2c0-6.2,4.1-10.3,7.7-12.7c-3.9-2.2-8.1-3.2-10.5-3.2c3.6,5.7-0.5,10-0.5,15.9
			c0,4.4,2.4,8.1,5.9,9.8c-1.1,0.5-2.2,1.3-3.2,2.4c0,0,6.1,0.6,8.5-1.3v18.3c-0.5-0.9-1.2-1.7-2-2.3c-0.6-0.5-1.3-0.9-2-1.1
			c-0.6-0.2-1.2-0.3-1.9-0.3c-1.5,0-3,0.5-4.3,1.1c0.6,0.7,1.2,1.5,1.9,2.2c1.1,1.2,2.4,2.1,4,2.6c1.4,0.4,2.9,0.5,4.4,0.2v7.3h2.5
			v-9c1.4,0.3,3,0.3,4.4-0.2c1.6-0.5,2.9-1.4,4-2.6c0.7-0.7,1.3-1.5,1.9-2.2c-1.4-0.6-2.8-1.1-4.4-1.1
			C-357.1,333.7-357.8,333.8-358.4,334.1z M-365.9,340.5c-0.4-0.3-0.8-0.5-1.2-0.7c-0.4-0.2-0.8-0.5-1.3-0.7
			c-0.7-0.3-1.4-0.7-2.2-0.9c0.3,0,0.7,0.1,1,0.2c1.4,0.3,3.7,1.2,4.7,1.6v1.3C-365.2,341-365.5,340.8-365.9,340.5z M-358.9,337.4
			c-0.4,0.2-0.9,0.4-1.3,0.7c-0.4,0.2-0.8,0.5-1.2,0.7c-0.3,0.2-0.7,0.5-1,0.7v-1.3c1-0.4,3.3-1.4,4.7-1.6c0.3-0.1,0.7-0.1,1-0.2
			C-357.5,336.7-358.2,337.1-358.9,337.4z"/>
	</g>
</g>
<g>
	<g>
		<g>
			<path class="st1" d="M39.5,91.8l1.1-0.9c1-0.9,2.2-1.7,3.3-2.4C39.1,84.8,33,84.9,33,84.9s1.3,2.2,2,5.3
				C36.4,90.6,37.9,91.1,39.5,91.8z"/>
			<path class="st1" d="M45.1,93.9l1.9,1c3.9-2.4,8-4.2,11.8-5.3c0.2-1.7,0.8-3.4,1.9-5.2c-4.5,0-13.1,2.5-19.3,7.6
				C42.7,92.6,43.9,93.2,45.1,93.9z"/>
			<path class="st1" d="M56.3,163.2c-1.3,0.5-2.6,1.3-3.7,2.1c-1.5,1.2-2.7,2.6-3.7,4.2v-30.4c4.3,3.4,15.6,2.4,15.6,2.4
				c-1.8-1.9-3.9-3.3-5.9-4.3c6.4-3.1,10.9-10,10.9-18.1c0-11-7.5-18.8-0.9-29.3c-10.1,0-35.7,9.5-35.7,29.3
				c0,6.5,2.9,12.3,7.4,15.9c-0.8,0.2-1.9,0.5-3.1,1c-4.5-4.1-7.4-10.1-7.4-16.9c0-11.4,7.5-18.9,14.2-23.4
				c-7.1-4-14.9-5.9-19.5-5.9c6.6,10.5-0.9,18.4-0.9,29.3c0,8.1,4.5,15,10.9,18.1c-2,1-4,2.4-5.9,4.3c0,0,11.3,1.1,15.6-2.4v33.8
				c-1-1.7-2.3-3.1-3.8-4.3c-1.1-0.9-2.3-1.6-3.7-2.1c-1.1-0.4-2.3-0.6-3.5-0.6c-2.8,0-5.5,1-8,2.1c1.2,1.4,2.2,2.8,3.5,4.1
				c2,2.2,4.5,3.9,7.4,4.8c2.6,0.8,5.4,0.9,8.1,0.3v13.5h4.6v-16.7c2.7,0.6,5.4,0.5,8-0.4c2.9-0.9,5.4-2.6,7.4-4.8
				c1.2-1.3,2.3-2.8,3.5-4.1c-2.5-1.1-5.3-2.1-8.1-2.1C58.6,162.6,57.4,162.8,56.3,163.2z M42.4,175.2c-0.7-0.5-1.4-0.9-2.2-1.4
				c-0.7-0.4-1.5-0.9-2.3-1.2c-1.3-0.6-2.7-1.2-4.1-1.6c0.6,0.1,1.2,0.2,1.8,0.3c2.5,0.5,6.8,2.2,8.6,3v2.3
				C43.7,176.1,43.1,175.6,42.4,175.2z M55.2,169.4c-0.8,0.4-1.6,0.8-2.3,1.2c-0.7,0.4-1.5,0.9-2.2,1.4c-0.6,0.4-1.2,0.9-1.8,1.4
				V171c1.9-0.8,6.1-2.5,8.6-3c0.6-0.1,1.2-0.2,1.8-0.3C57.9,168.2,56.6,168.8,55.2,169.4z"/>
		</g>
	</g>
	<g>
		<path class="st1" d="M118.4,160.1c0-17-6.1-33.5-17.1-46.5c-1.2-1.4-2.4-2.1-3.6-2.1c-2.3,0-3.5,2-3.5,5.9v40.2
			c0,1.4-1.1,3.3-2.3,4l-43,24.9c-0.6,0.3-1.4,0.5-2.3,0.5s-1.7-0.2-2.3-0.5l-43-24.9c-1.2-0.7-2.3-2.6-2.3-4v-40.8
			c0-4.5-2.7-4.8-3.5-4.8c-2,0-3.7,1.8-4.4,2.6c-10.5,12.8-16.3,29-16.3,45.5c0,26.8,14.8,50.3,36.7,62.6c2,1.1,6.1,3.1,6.1,8.8
			v90.7c0,3.8,3.1,6.8,6.8,6.8h44.4c3.8,0,6.8-3.1,6.8-6.8v-90.7c0-5.8,3.6-7.4,5.3-8.4C103.3,210.9,118.4,187.2,118.4,160.1z"/>
	</g>
</g>
<path class="st2" d="M-283.3,257.4l-70.1-40.5c-2.8-1.6-6.4-2.5-10.2-2.5c-3.8,0-7.4,0.9-10.2,2.5l-70.1,40.5
	c-5.8,3.4-10.2,10.9-10.2,17.6v80.4c0,6.7,4.4,14.3,10.2,17.6l70.1,40.5c2.8,1.6,6.4,2.5,10.2,2.5c3.8,0,7.4-0.9,10.2-2.5l70.1-40.5
	c5.8-3.4,10.2-10.9,10.2-17.6V275C-273.1,268.3-277.5,260.7-283.3,257.4z M-363.6,354.9c-21.9,0-39.7-17.8-39.7-39.7
	c0-21.9,17.8-39.7,39.7-39.7s39.7,17.8,39.7,39.7C-323.9,337.2-341.7,354.9-363.6,354.9z"/>
<circle class="st3" cx="46.6" cy="206.7" r="157.3"/>
<text transform="matrix(1 0 0 1 -31.6553 409.7473)" class="st1 st4 st5">Sección</text>
<text transform="matrix(1 0 0 1 32.3559 434.1321)" class="st1 st4 st6">en</text>
<text transform="matrix(1 0 0 1 -81.0542 474.844)" class="st1 st4 st7">construcción</text>
<line class="st8" x1="65.8" y1="428.8" x2="169.7" y2="428.8"/>
<line class="st8" x1="-75.9" y1="428.8" x2="28" y2="428.8"/>
</svg>
